<svg width="300" height="471" viewBox="0 0 300 471" fill="none" xmlns="http://www.w3.org/2000/svg">
<path opacity="0.03" fill-rule="evenodd" clip-rule="evenodd" d="M168 304H413.962C434.384 304 451 287.357 451 266.902V169.098C451 148.643 434.384 132 413.962 132H205.04C184.616 132 168 148.643 168 169.098V304ZM168.254 337.665V398.985C168.254 419.394 184.861 436 205.273 436H530.375C561.047 436 586 411.044 586 380.374V116.635C586 97.9281 576.689 80.59 561.093 70.2572L336.213 -78.7019C317.213 -91.2836 292.799 -91.0819 274.008 -78.1865L58.1437 70.004C43.0232 80.379 34 97.5228 34 115.861V266.373C34 286.782 50.6045 303.388 71.0172 303.388H133.979V168.789C133.979 129.479 165.963 97.4989 205.273 97.4989H414.079C453.389 97.4989 485.371 129.479 485.371 168.789V266.373C485.371 305.683 453.389 337.665 414.079 337.665H168.254ZM530.179 471H205.367C166.092 471 134.136 438.998 134.136 399.66V338.297H71.2303C31.9534 338.297 0 306.293 0 266.955V116.336C0 86.6779 14.5737 58.9526 38.9855 42.1676L254.659 -106.127C284.998 -126.98 324.423 -127.316 355.099 -106.959L579.781 42.1052C604.966 58.8149 620 86.8542 620 117.111V381.036C620 430.644 579.708 471 530.179 471Z" fill="white"/>
</svg>
