<svg width="276" height="593" viewBox="0 0 276 593" fill="none" xmlns="http://www.w3.org/2000/svg">
<path opacity="0.03" fill-rule="evenodd" clip-rule="evenodd" d="M-176 426H69.9622C90.3844 426 107 409.357 107 388.902V291.098C107 270.643 90.3844 254 69.9622 254H-138.96C-159.384 254 -176 270.643 -176 291.098V426ZM-175.746 459.665V520.985C-175.746 541.394 -159.139 558 -138.727 558H186.375C217.047 558 242 533.044 242 502.374V238.635C242 219.928 232.689 202.59 217.093 192.257L-7.78714 43.2981C-26.7873 30.7164 -51.2007 30.9181 -69.9918 43.8135L-285.856 192.004C-300.977 202.379 -310 219.523 -310 237.861V388.373C-310 408.782 -293.395 425.388 -272.983 425.388H-210.021V290.789C-210.021 251.479 -178.037 219.499 -138.727 219.499H70.0792C109.389 219.499 141.371 251.479 141.371 290.789V388.373C141.371 427.683 109.389 459.665 70.0792 459.665H-175.746ZM186.179 593H-138.633C-177.908 593 -209.864 560.998 -209.864 521.66V460.297H-272.77C-312.047 460.297 -344 428.293 -344 388.955V238.336C-344 208.678 -329.426 180.953 -305.014 164.168L-89.3406 15.8726C-59.0019 -4.98018 -19.5765 -5.31609 11.0995 15.041L235.781 164.105C260.966 180.815 276 208.854 276 239.111V503.036C276 552.644 235.708 593 186.179 593Z" fill="white"/>
</svg>
