<svg width="1068" height="898" viewBox="0 0 1068 898" fill="none" xmlns="http://www.w3.org/2000/svg">
<path d="M730.495 64.4718C730.491 61.4445 729.286 58.5425 727.144 56.4033C725.001 54.2641 722.098 53.0625 719.071 53.0625H618.706V75.6064H730.495V64.4718Z" fill="#1794C2"/>
<path d="M618.706 75.6094V126.31C618.706 127.81 619.002 129.295 619.576 130.68C620.15 132.065 620.992 133.323 622.053 134.383C623.114 135.443 624.374 136.283 625.76 136.855C627.146 137.428 628.631 137.722 630.131 137.72L705.816 137.338L730.495 159.76V75.6094H618.706Z" fill="#07698C"/>
<path d="M86.9727 694.5H297.464V712.453H86.9727V694.5Z" fill="#81CAE6"/>
<path d="M86.9727 730.559H197.465V748.496H86.9727V730.559Z" fill="#E0E0E0"/>
<path d="M27.4248 712.727H86.9114V730.435H27.4248V712.727Z" fill="#FFCD69"/>
<path d="M909.123 259.346H1005.7V411.006H909.077" stroke="#0F4559" stroke-width="3.05059" stroke-miterlimit="10"/>
<path d="M105.963 134.807V189.382H191.303" stroke="#0F4559" stroke-width="3.05059" stroke-miterlimit="10"/>
<path d="M771.479 271.777H207.653V615.884H771.479V271.777Z" stroke="#0F4559" stroke-width="3.05059" stroke-miterlimit="10"/>
<path d="M56.5273 405.06V367.416H252.421" stroke="#0F4559" stroke-width="3.05059" stroke-miterlimit="10" stroke-linecap="round"/>
<path d="M929.623 160.111H241.317V615.763H929.7L929.623 160.111Z" fill="#E0E0E0"/>
<path d="M696.42 422.37L559.967 427.556V316.072H760.147L696.42 422.37Z" fill="#97AABA"/>
<path d="M837.739 187.67L930.752 189.851L929.623 316.451H760.513L837.739 187.67Z" fill="#E0E0E0"/>
<path d="M931.926 429.859H319.321V577.813H931.926V429.859Z" fill="#07698C"/>
<path d="M1000.92 578.01H209.287V673.661H1000.92V578.01Z" fill="#72BEDC"/>
<path d="M931.926 578.01H319.977V626.819H931.926V578.01Z" fill="#97AABA"/>
<path d="M560.105 187.732H319.718V421.103H560.105V187.732Z" fill="#E0E0E0"/>
<path d="M487.454 452.25H360.854V534.845H487.454V452.25Z" fill="#E0E0E0"/>
<path d="M1025.32 497.188H724.531V537.638H1025.32V497.188Z" fill="#E0E0E0"/>
<path d="M988.393 456.748H724.517V497.184H988.393V456.748Z" fill="#97AABA"/>
<path d="M1063.96 456.748H1025.32V497.184H1063.94L1063.96 456.748Z" fill="#1794C2"/>
<path d="M927.96 451.307H494.089V537.7H927.96V451.307Z" fill="#E0E0E0"/>
<path d="M721.557 421.926H319.321V538.367H721.557V421.926Z" fill="#81CAE6"/>
<path d="M160.842 466.864L132.563 500.817L121.657 477.313L71.1396 537.958V578.836H241.317V423.5L175.073 500.817L160.842 466.864Z" fill="#1794C2"/>
<path d="M71.1396 384.316V537.96L121.657 477.314L132.563 500.819L160.842 466.865L175.134 500.819L241.378 423.501V384.316H71.1396Z" fill="#72BEDC"/>
<path d="M319.763 333.43H241.256V421.195H319.763V333.43Z" fill="#E0E0E0"/>
<path d="M560.105 380.439H516.512" stroke="#0F4559" stroke-width="3.05059" stroke-miterlimit="10" stroke-linecap="round"/>
<path d="M636.202 380.439H560.104" stroke="white" stroke-width="3.05059" stroke-linejoin="round"/>
<path d="M320.312 421.91L733.912 422.49" stroke="white" stroke-width="3.05059" stroke-linecap="round" stroke-linejoin="round"/>
<path d="M877.229 674.562H164.198C156.094 674.551 148.256 671.677 142.066 666.448L99.3574 630.512H931.178L899.635 664.678C896.786 667.784 893.324 670.266 889.467 671.968C885.611 673.669 881.444 674.552 877.229 674.562Z" fill="#0F4559"/>
<path d="M836.961 189.047L696.405 422.417" stroke="white" stroke-width="3.05059" stroke-linecap="round" stroke-linejoin="round"/>
<path d="M797.882 357.148L758.606 422.324" stroke="white" stroke-width="3.05059" stroke-linecap="round" stroke-linejoin="round"/>
<path d="M946.691 205.152L815.835 422.324" stroke="white" stroke-width="3.05059" stroke-linecap="round" stroke-linejoin="round"/>
<path d="M931.927 295.512L855.509 422.371" stroke="white" stroke-width="3.05059" stroke-linecap="round" stroke-linejoin="round"/>
<path d="M792.559 189.047L650.981 421.487" stroke="white" stroke-width="3.05059" stroke-linecap="round" stroke-linejoin="round"/>
<path d="M704.367 189.047L563.811 422.417" stroke="white" stroke-width="3.05059" stroke-linecap="round" stroke-linejoin="round"/>
<path d="M749.012 189.047L632.327 380.517" stroke="white" stroke-width="3.05059" stroke-linecap="round" stroke-linejoin="round"/>
<path d="M632.907 380.439H928.815" stroke="white" stroke-width="3.05059" stroke-linecap="round" stroke-linejoin="round"/>
<path d="M649.547 355.623H928.845" stroke="white" stroke-width="3.05059" stroke-linecap="round" stroke-linejoin="round"/>
<path d="M848.722 280.654H559.281" stroke="white" stroke-width="3.05059" stroke-linecap="round" stroke-linejoin="round"/>
<path d="M969.997 614.861H52.5459V631.289H969.997V614.861Z" fill="#1794C2"/>
<path d="M930.751 159.883H425.268V189.84H930.751V159.883Z" fill="#0F4559"/>
<path d="M92.9975 207.775H69.2485V231.509H92.9975V207.775Z" fill="#97AABA"/>
<path d="M478.76 316.254H929.623" stroke="white" stroke-width="3.05059" stroke-linecap="round" stroke-linejoin="round"/>
<path d="M1000.92 577.492H931.987V614.771H1000.92V577.492Z" fill="#72BEDC"/>
<path d="M207.394 169.718V99.2647C207.342 93.0398 209.759 87.0478 214.116 82.6019C218.473 78.156 224.415 75.6188 230.64 75.5464L907.109 73.7617C910.202 73.7817 913.26 74.4114 916.109 75.6147C918.958 76.8181 921.542 78.5714 923.712 80.7745C925.883 82.9776 927.598 85.5871 928.758 88.4537C929.919 91.3203 930.503 94.3876 930.477 97.4802V487.956" stroke="#0F4559" stroke-width="3.05059" stroke-miterlimit="10"/>
<path d="M720.26 577.492H501.075V614.771H720.26V577.492Z" fill="#E0E0E0"/>
<path d="M720.26 538.248H501.075V578.165H720.26V538.248Z" fill="#1794C2"/>
<path d="M1038.32 614.861H1000.92V652.14H1038.38L1038.32 614.861Z" fill="#F3B63E"/>
<path d="M175.181 253.732H87.1099V284.559H175.181V253.732Z" fill="#72BEDC"/>
<path d="M175.181 302.59H87.1099V333.416H175.181V302.59Z" fill="#E0E0E0"/>
<path d="M158.463 253.732H127.637V284.559H158.463V253.732Z" fill="#0F4559"/>
<path d="M158.631 53.0625V139.12H67.1133V68.8494C67.1213 64.673 68.7839 60.67 71.737 57.7169C74.6902 54.7637 78.6932 53.1011 82.8695 53.093H158.555L158.631 53.0625Z" fill="#07698C"/>
<path d="M119.706 73.9473L144.003 98.2301L119.706 122.528V73.9473Z" fill="white"/>
<path d="M89.2905 73.9473L113.589 98.2301L89.2905 122.528V73.9473Z" fill="#10BDC9"/>
<path d="M180.168 120.865H458.779C464.432 120.873 469.851 123.122 473.849 127.119C477.838 131.125 480.076 136.55 480.072 142.204V193.53H158.844V142.265C158.844 136.602 161.094 131.17 165.099 127.165C169.103 123.161 174.535 120.911 180.198 120.911L180.168 120.865Z" fill="#97AABA"/>
<path d="M480.072 189.748H158.509V316.607C158.625 321.164 160.543 325.489 163.842 328.634C167.142 331.779 171.554 333.488 176.111 333.385H480.072V189.748Z" fill="#72BEDC"/>
<path d="M480.073 253.732H158.555V316.941C158.519 319.068 158.902 321.182 159.683 323.161C160.463 325.14 161.626 326.946 163.105 328.476C164.583 330.006 166.349 331.229 168.301 332.077C170.252 332.924 172.352 333.378 174.479 333.414H480.073V253.732Z" fill="#1794C2"/>
<path d="M865.026 264.668H834.185V295.494H865.026V264.668Z" fill="#0F4559"/>
<path d="M865.026 215.234H834.185V246.061H865.026V215.234Z" fill="#0F4559"/>
<path d="M664.954 102.133H577.082C572.362 102.137 567.837 104.013 564.499 107.35C561.162 110.688 559.285 115.213 559.281 119.933V219.458L578.836 199.889H665C667.337 199.891 669.651 199.432 671.81 198.539C673.97 197.646 675.932 196.337 677.585 194.685C679.239 193.033 680.55 191.072 681.445 188.913C682.339 186.755 682.8 184.441 682.8 182.104V119.917C682.8 117.576 682.338 115.258 681.441 113.095C680.543 110.932 679.228 108.968 677.57 107.315C675.912 105.661 673.945 104.351 671.78 103.459C669.615 102.567 667.295 102.111 664.954 102.117V102.133Z" fill="#72BEDC"/>
<path d="M658.288 159.758C660.116 159.758 661.902 159.216 663.422 158.201C664.942 157.186 666.126 155.744 666.826 154.056C667.526 152.367 667.71 150.51 667.355 148.717C667 146.925 666.121 145.277 664.829 143.984C663.538 142.691 661.893 141.809 660.101 141.451C658.309 141.093 656.451 141.273 654.761 141.971C653.072 142.668 651.628 143.85 650.61 145.368C649.593 146.887 649.048 148.672 649.045 150.5C649.043 151.715 649.28 152.918 649.744 154.042C650.208 155.165 650.888 156.186 651.747 157.045C652.605 157.905 653.625 158.588 654.747 159.053C655.87 159.518 657.073 159.758 658.288 159.758Z" fill="white"/>
<path d="M623.466 159.758C625.293 159.758 627.08 159.216 628.599 158.201C630.119 157.186 631.304 155.744 632.004 154.056C632.704 152.367 632.888 150.51 632.532 148.717C632.177 146.925 631.298 145.277 630.007 143.984C628.716 142.691 627.07 141.809 625.278 141.451C623.486 141.093 621.628 141.273 619.939 141.971C618.25 142.668 616.805 143.85 615.787 145.368C614.77 146.887 614.225 148.672 614.222 150.5C614.22 151.715 614.458 152.918 614.922 154.042C615.385 155.165 616.066 156.186 616.924 157.045C617.783 157.905 618.802 158.588 619.925 159.053C621.047 159.518 622.25 159.758 623.466 159.758Z" fill="white"/>
<path d="M588.307 159.758C590.134 159.758 591.921 159.216 593.44 158.201C594.96 157.186 596.145 155.744 596.845 154.056C597.545 152.367 597.729 150.51 597.374 148.717C597.018 146.925 596.139 145.277 594.848 143.984C593.557 142.691 591.911 141.809 590.119 141.451C588.327 141.093 586.469 141.273 584.78 141.971C583.091 142.668 581.646 143.85 580.629 145.368C579.611 146.887 579.067 148.672 579.063 150.5C579.061 151.715 579.299 152.918 579.763 154.042C580.226 155.165 580.907 156.186 581.765 157.045C582.624 157.905 583.643 158.588 584.766 159.053C585.888 159.518 587.092 159.758 588.307 159.758Z" fill="white"/>
<path d="M128.14 219.123H290.828" stroke="#0F4559" stroke-width="3.05059" stroke-miterlimit="10"/>
<path d="M136.392 207.348H112.658V231.081H136.392V207.348Z" fill="#07698C"/>
<path d="M354.19 207.258H184.21V230.992H354.19V207.258Z" fill="#E0E0E0"/>
<path d="M429.661 207.258H406.782V230.992H429.661V207.258Z" fill="#0F4559"/>
<path d="M406.385 231.434H354.189V283.919H406.37L406.385 231.434Z" fill="#07698C"/>
<path d="M480.072 159.408H158.844V189.746H480.072V159.408Z" fill="#FFCD69"/>
<path d="M317.322 500.117L649.608 499.903L682.799 442.049H734.934" stroke="white" stroke-width="3.05059" stroke-linecap="round" stroke-linejoin="round"/>
<path d="M413.676 595.826H56.5273V559.219" stroke="#0F4559" stroke-width="3.05059" stroke-miterlimit="10" stroke-linecap="round"/>
<path d="M319.778 421.379H241.393V499.764H319.778V421.379Z" fill="white"/>
<path d="M281.174 460.243C283.398 460.246 285.573 459.589 287.424 458.356C289.274 457.122 290.717 455.367 291.571 453.314C292.424 451.26 292.649 448.999 292.217 446.818C291.784 444.636 290.715 442.631 289.143 441.058C287.572 439.484 285.569 438.412 283.388 437.977C281.207 437.542 278.946 437.764 276.891 438.614C274.836 439.464 273.079 440.905 271.843 442.754C270.607 444.603 269.948 446.777 269.948 449.001C269.948 451.98 271.13 454.837 273.235 456.945C275.34 459.053 278.195 460.239 281.174 460.243Z" fill="#0F4559"/>
<path d="M281.173 463.402C283.794 463.402 286.39 463.919 288.812 464.922C291.233 465.926 293.433 467.397 295.286 469.251C297.139 471.105 298.608 473.307 299.61 475.729C300.611 478.151 301.126 480.747 301.124 483.368H261.283C261.283 478.097 263.368 473.039 267.083 469.299C270.797 465.558 275.841 463.439 281.112 463.402H281.173Z" fill="#0F4559"/>
<path d="M319.778 499.992H241.393V578.377H319.778V499.992Z" fill="#F3B63E"/>
<path d="M319.779 538.596H288.22" stroke="#0F4559" stroke-width="3.05059" stroke-linecap="round" stroke-linejoin="round"/>
<path d="M570.644 538.596H320.145" stroke="white" stroke-width="3.05059" stroke-linejoin="round"/>
<path d="M289.287 564.496L263.998 539.191L289.287 513.887V564.496Z" fill="#0F4559"/>
<path d="M589.421 528.256L570.644 538.277L568.875 516.496L640.778 397.004L659.264 407.574L589.421 528.256Z" fill="#0F4559"/>
<path d="M720.261 409.529V538.249H859.063V409.499L789.708 368.117L720.261 409.529Z" fill="#1794C2"/>
<path d="M803.511 464.697H831.256V418.725H803.511V464.697Z" fill="white"/>
<path d="M748.021 464.697H775.766V418.725H748.021V464.697Z" fill="#0F4559"/>
<path d="M748.021 538.248H775.766V492.26H748.021V538.248Z" fill="#0F4559"/>
<path d="M803.511 538.248H831.256V492.26H803.511V538.248Z" fill="#0F4559"/>
<path d="M789.646 368.145H872.882L931.56 409.526H859.063L789.646 368.145Z" fill="#07698C"/>
<path d="M931.895 409.527H859.062V538.247H931.957L931.895 409.527Z" fill="#0F4559"/>
<path d="M868.215 354.344H895.96V400.331L868.215 383.797V354.344Z" fill="#1794C2"/>
<path d="M1066 496.09H900.246V442.049H827.886" stroke="white" stroke-width="3.03534" stroke-linecap="round" stroke-linejoin="round"/>
<path d="M30.8262 473.787H0V504.69H30.8262V473.787Z" fill="#10BDC9"/>
<path d="M30.8262 422.186H0V453.027H30.8262V422.186Z" fill="#4CAFD4"/>
<path d="M190.723 284.561H158.509V303.062H190.723V284.561Z" fill="#72BEDC"/>
<path d="M543.844 60.1875H513.018V91.0137H543.844V60.1875Z" fill="#97AABA"/>
<path d="M489.269 60.1875H458.428V91.0137H489.269V60.1875Z" fill="#1794C2"/>
<path d="M435.671 60.1875H404.845V91.0137H435.671V60.1875Z" fill="white" stroke="#0F4559" stroke-width="3.05059" stroke-miterlimit="10"/>
<path d="M974.726 215.555H881.256V314.867H974.726V215.555Z" fill="#07698C"/>
<path d="M903.297 261.358L925.17 281.431L959.382 240.004" stroke="white" stroke-width="3.05059" stroke-linecap="round" stroke-linejoin="round"/>
<path d="M965.94 116.746H896.798V190.22H965.94V116.746Z" fill="#FFCD69"/>
<path d="M965.834 113.924H896.906V159.881H965.834V113.924Z" fill="#1794C2"/>
<path d="M896.906 113.924L931.988 139.106L965.88 113.924H896.906Z" fill="#0F4559"/>
<path d="M483.398 333.306H468.846L416.895 333.489L399.949 299.018H374.019L403.259 358.641L441.391 358.824L441.589 439.192L441.345 440.123H505.865L505.56 427.143L512.805 426.99C515.214 426.962 517.515 425.985 519.208 424.272C520.901 422.559 521.851 420.247 521.85 417.838V371.927C521.871 361.707 517.831 351.897 510.62 344.655C503.41 337.413 493.618 333.33 483.398 333.306Z" fill="white"/>
<path d="M441.132 440.123L441.574 358.992H417.169V333.611C438.28 333.611 476.656 333.474 483.535 333.504C504.264 333.276 522.232 351.381 521.835 372.11V378.745L505.56 386.844V440.229L441.132 440.123Z" fill="#07698C"/>
<path d="M399.582 597.795L374.506 614.741H420.555L426.412 598.207L399.582 597.795Z" fill="#07698C"/>
<path d="M509.464 597.795L484.373 598.085L486.295 614.68H533.259L509.464 597.795Z" fill="#07698C"/>
<path d="M464.514 316.406V351.778L488.202 333.764V316.406H464.514Z" fill="white"/>
<path d="M478.211 274.141C475.082 274.026 471.962 274.532 469.03 275.629C466.098 276.726 463.412 278.392 461.127 280.532C458.397 283.123 456.353 286.352 455.179 289.928L448.91 308.353C448.825 308.608 448.802 308.878 448.843 309.143C448.883 309.407 448.986 309.658 449.142 309.876C449.298 310.093 449.504 310.27 449.742 310.393C449.98 310.515 450.244 310.58 450.511 310.58H454.126V319.885C454.126 320.888 454.525 321.85 455.234 322.559C455.943 323.269 456.906 323.667 457.909 323.667H476.914V321.654H477.356C483.527 321.574 489.424 319.095 493.799 314.742C498.173 310.389 500.682 304.505 500.793 298.334C500.904 292.164 498.609 286.193 494.394 281.686C490.178 277.179 484.374 274.489 478.211 274.187V274.141Z" fill="white"/>
<path d="M501.853 297.252C501.848 294.175 501.228 291.13 500.031 288.295C498.834 285.461 497.084 282.894 494.882 280.744C492.68 278.595 490.071 276.907 487.209 275.779C484.346 274.65 481.287 274.105 478.211 274.174C471.591 274.174 459.755 273.869 459.755 281.968H463.599C465.249 281.964 466.885 282.287 468.41 282.919C469.935 283.551 471.32 284.478 472.484 285.648C473.649 286.818 474.57 288.208 475.194 289.736C475.818 291.264 476.133 292.901 476.121 294.552V303.841L482.101 303.963V321.244C482.101 321.244 501.853 317.691 501.853 297.252Z" fill="#0F4559"/>
<path d="M480.881 311.77C484.899 311.77 488.157 308.513 488.157 304.494C488.157 300.476 484.899 297.219 480.881 297.219C476.863 297.219 473.605 300.476 473.605 304.494C473.605 308.513 476.863 311.77 480.881 311.77Z" fill="#0F4559"/>
<path d="M480.88 312.899C485.522 312.899 489.284 309.136 489.284 304.494C489.284 299.853 485.522 296.09 480.88 296.09C476.238 296.09 472.476 299.853 472.476 304.494C472.476 309.136 476.238 312.899 480.88 312.899Z" stroke="white" stroke-width="3.05059" stroke-linecap="round" stroke-linejoin="round"/>
<path d="M400.055 299.339L394.213 289.074C393.441 287.519 392.248 286.212 390.771 285.301C389.293 284.39 387.59 283.911 385.855 283.918L354.205 284.009C354.205 284.009 362.96 299.262 374.674 299.262L400.055 299.339Z" fill="white"/>
<path d="M469.868 365.646H417.794V440.142H469.868V365.646Z" fill="#1794C2"/>
<path d="M479.081 410.947H446.607C448.331 414.654 450.115 419.443 453.288 422.173C456.82 425.528 461.519 427.377 466.39 427.329H479.05L479.081 410.947Z" fill="white"/>
<path d="M519.135 424.414C520.831 422.695 521.779 420.376 521.773 417.962V380.927C521.773 380.165 521.773 379.402 521.773 378.67H495.935L497.262 406.552L469.807 406.095V427.327H505.56L512.82 427.19C515.203 427.109 517.464 426.115 519.135 424.414Z" fill="white"/>
<path d="M399.582 597.795L426.412 598.177L469.867 471.928L484.373 598.07L509.586 597.795L505.819 440.141H441.314L399.582 597.795Z" fill="#0F4559"/>
<path d="M480.271 274.201V296.181" stroke="white" stroke-width="3.05059" stroke-linecap="round" stroke-linejoin="round"/>
<path d="M536.218 255.43H480.271V274.206" stroke="#0F4559" stroke-width="3.05059" stroke-miterlimit="10"/>
<path d="M751.865 255.43H536.218" stroke="white" stroke-width="3.05059" stroke-linecap="round" stroke-linejoin="round"/>
<path d="M528.989 250.256C528.699 233.645 543.189 219.155 559.815 219.43C576.441 219.155 590.931 233.645 590.641 250.256C590.641 267.309 559.815 314.593 559.815 314.593C559.815 314.593 528.989 267.309 528.989 250.256Z" fill="#07698C"/>
<path d="M559.875 264.44C563.022 264.44 566.041 263.19 568.266 260.965C570.492 258.739 571.742 255.721 571.742 252.573C571.117 236.832 548.634 236.832 548.008 252.573C548.008 255.721 549.259 258.739 551.484 260.965C553.71 263.19 556.728 264.44 559.875 264.44Z" fill="white"/>
<path d="M618.706 292.827C618.75 284.662 622.014 276.844 627.789 271.072C633.564 265.301 641.383 262.04 649.548 262C666.158 261.711 680.648 276.201 680.374 292.827C680.374 309.879 649.548 357.148 649.548 357.148C649.548 357.148 618.706 309.879 618.706 292.827Z" fill="#1794C2"/>
<path d="M649.609 307.01C652.755 307.006 655.771 305.755 657.995 303.53C660.22 301.306 661.471 298.29 661.475 295.144C660.85 279.387 638.352 279.402 637.742 295.144C637.742 298.291 638.992 301.309 641.217 303.535C643.443 305.76 646.461 307.01 649.609 307.01Z" fill="white"/>
<path d="M422.492 377.297H281.204L175.135 500.846L160.843 466.893L132.563 500.846L121.658 477.341L70.4839 538.704H26.54" stroke="#0F4559" stroke-width="3.05059" stroke-miterlimit="10" stroke-linecap="round"/>
<path d="M469.852 377.297H417.794" stroke="white" stroke-width="3.05059" stroke-linejoin="round"/>
<path d="M30.8262 524.076H0V554.903H30.8262V524.076Z" fill="#085676"/>
<path d="M207.181 207.258H184.21V230.992H207.181V207.258Z" fill="#07698C"/>
<path d="M254.251 207.258H231.28V230.992H254.251V207.258Z" fill="white"/>
<path d="M241.317 284.561H222.815V303.062H241.317V284.561Z" fill="#FFCD69"/>
<path d="M278.382 284.561H259.895V303.062H278.382V284.561Z" fill="#FFCD69"/>
<path d="M203.658 284.561H185.156V303.062H203.658V284.561Z" fill="#0F4559"/>
<path d="M87.1098 284.561H68.6079V303.062H87.1098V284.561Z" fill="#0F4559"/>
<path d="M280.502 400.62C293.382 400.62 303.824 390.179 303.824 377.298C303.824 364.418 293.382 353.977 280.502 353.977C267.622 353.977 257.18 364.418 257.18 377.298C257.18 390.179 267.622 400.62 280.502 400.62Z" fill="#E0E0E0"/>
<path d="M294.703 358.751C297.141 360.604 299.189 362.92 300.731 365.565C302.274 368.211 303.279 371.135 303.69 374.17C304.101 377.204 303.909 380.29 303.126 383.251C302.343 386.211 300.984 388.988 299.126 391.423C279.419 415.294 244.215 388.525 262.031 363.174C263.884 360.736 266.199 358.688 268.845 357.145C271.491 355.603 274.415 354.598 277.449 354.187C280.484 353.776 283.57 353.968 286.53 354.751C289.491 355.534 292.268 356.893 294.703 358.751V358.751Z" stroke="#0F4559" stroke-width="3.05059" stroke-miterlimit="10" stroke-linecap="round" stroke-dasharray="25.78 10.84"/>
<path d="M280.502 386.908C285.809 386.908 290.111 382.606 290.111 377.299C290.111 371.992 285.809 367.689 280.502 367.689C275.195 367.689 270.893 371.992 270.893 377.299C270.893 382.606 275.195 386.908 280.502 386.908Z" fill="#0F4559"/>
<path d="M340.553 35.418H322.921V53.0656H340.553V35.418Z" fill="#FFCD69"/>
<path d="M299.752 35.418H282.119V53.0656H299.752V35.418Z" fill="#FFCD69"/>
<path d="M258.95 35.418H241.317V53.0656H258.95V35.418Z" fill="#81CAE6"/>
<path d="M218.148 35.418H200.531V53.0656H218.148V35.418Z" fill="#07698C"/>
<path d="M176.477 35.418H158.844V53.0656H176.477V35.418Z" fill="#81CAE6"/>
<path d="M258.95 0H241.317V17.6477H258.95V0Z" fill="#1794C2"/>
<path d="M218.148 0H200.531V17.6477H218.148V0Z" fill="#1794C2"/>
<path d="M176.477 0H158.844V17.6477H176.477V0Z" fill="#1794C2"/>
<path d="M814.692 703.698C790.287 656.413 744.085 630.392 655.771 630.392C610.912 630.392 568.829 630.117 524.931 630.117C524.931 651.792 568.112 674.732 599.823 674.732H293.97C293.97 674.732 310.901 705.467 388.737 710.378C388.737 710.378 386.586 740.884 459.999 752.217C501.441 758.593 813.441 803.04 813.441 803.04L814.692 703.698Z" fill="#E0E0E0"/>
<path d="M811.779 701.072L787.161 825.688L1040.15 897.057V700.645L811.779 701.072Z" fill="#1794C2"/>
<path d="M387.151 711.473L545.538 727.336" stroke="white" stroke-width="4.57589" stroke-linecap="round" stroke-linejoin="round"/>
<path d="M241.577 423.5L175.135 500.817L160.843 466.864L132.564 500.817L121.658 477.313L70.4844 538.706" stroke="white" stroke-width="3.05059" stroke-miterlimit="10" stroke-linecap="round"/>
</svg>
