<svg width="180" height="180" viewBox="0 0 180 180" fill="none" xmlns="http://www.w3.org/2000/svg">
<path d="M47.9746 62.9254L29.0026 74.5849C25.5961 76.6774 23.5171 80.3944 23.5171 84.3904V120.057C23.5171 124.314 26.0776 128.157 30.0106 129.795L57.3481 143.682C68.0041 148.124 80.2396 143.804 89.1406 136.451L90.1531 135.614L83.4211 65.6119L47.9701 62.9209L47.9746 62.9254Z" fill="#1794C2"/>
<path d="M64.1699 82.4766V100.922" stroke="#07698C" stroke-width="3.303" stroke-linecap="round" stroke-linejoin="round"/>
<path d="M82.4446 64.2036L64.1701 82.4781L45.8911 64.2036V50.5371H82.4446V64.2036Z" fill="#C1C1C1"/>
<path d="M78.039 24.9566L78.129 24.7676H61.776C56.9745 24.7676 53.082 28.6601 53.082 33.4616V44.9501L45.8955 39.5321V54.6071C46.5795 64.5881 59.7735 72.4001 70.101 71.6441C79.8435 70.9331 82.449 62.1626 82.449 52.3931V34.3031C82.449 30.7031 80.847 27.2876 78.075 24.9836L78.0435 24.9566H78.039Z" fill="#E0E0E0"/>
<path d="M59.3998 32.9639C64.2688 32.6354 68.8453 30.4934 72.2248 26.9744L73.3768 25.7729C75.5278 24.4274 78.3538 24.9629 79.8568 27.0059L80.9638 28.5134C80.9863 28.4594 81.1843 27.9734 81.4543 27.2804C82.8898 23.6444 81.5308 19.4684 78.2053 17.4119C76.4278 16.3139 74.6278 15.5039 73.4038 15.5039H59.6968C52.0693 15.5039 45.8818 21.6869 45.8818 29.3189V39.5339L53.0683 44.9519V33.4634C53.0683 33.4634 55.9933 33.1979 59.3908 32.9684L59.3998 32.9639Z" fill="#0F4559"/>
<path d="M51.9574 50.6117C54.7791 49.2538 55.6224 45.1521 53.8409 41.4502C52.0594 37.7484 48.3278 35.8483 45.5061 37.2063C42.6844 38.5642 41.8411 42.666 43.6226 46.3678C45.4041 50.0696 49.1357 51.9697 51.9574 50.6117Z" fill="#E0E0E0"/>
<path d="M77.2962 57.3838C75.6987 59.1163 73.4082 60.2053 70.8612 60.2053C68.4447 60.2053 66.2622 59.2243 64.6782 57.6448" stroke="#0F4559" stroke-width="3.375" stroke-linecap="round" stroke-linejoin="round"/>
<path d="M49.7701 111.831V106.269H23.5171V120.057C23.5171 124.314 26.0776 128.157 30.0106 129.795L58.2031 144.055C68.8591 148.497 80.2441 143.803 89.1451 136.45L90.1576 135.613L89.3881 130.717L49.7746 111.831H49.7701Z" fill="#E0E0E0"/>
<path d="M125.982 14.9678H127.782C139.572 14.9678 149.143 24.5393 149.143 36.3293V84.3578H104.616V36.3293C104.616 24.5393 114.187 14.9678 125.977 14.9678H125.982Z" fill="#07698C"/>
<path d="M100.152 69.973V107.93L128.318 123.086L150.984 110C154.386 108.038 156.483 104.407 156.483 100.478V76.4665C156.483 72.448 154.341 68.7355 150.858 66.724L128.318 53.71L100.152 69.973Z" fill="#97AABA"/>
<path d="M126.882 63.7851C118.768 63.7851 112.189 57.2061 112.189 49.0926V46.2801L122.179 39.1836C126.693 35.9751 129.397 30.7956 129.442 25.2561L129.469 21.8496L132.723 23.1861C138.073 25.3821 141.57 30.5931 141.57 36.3801V49.0926C141.57 57.2061 134.991 63.7851 126.877 63.7851H126.882Z" fill="#C1C1C1"/>
<path d="M104.648 67.6084L111.884 73.9939C121.122 82.1479 135.198 81.3738 143.483 72.2523L149.315 65.8309L127.418 52.6729L104.643 67.6084H104.648Z" fill="#C1C1C1"/>
<path d="M132.557 54.0439C131.121 55.6054 129.06 56.5819 126.77 56.5819C124.596 56.5819 122.63 55.6999 121.208 54.2779" stroke="#0F4559" stroke-width="3.375" stroke-linecap="round" stroke-linejoin="round"/>
<path d="M153.783 99.604L153.454 99.035C151.313 95.3266 146.571 94.056 142.863 96.1971L113.186 113.331C109.478 115.472 108.207 120.214 110.348 123.922L110.677 124.491C112.818 128.2 117.56 129.47 121.268 127.329L150.945 110.195C154.653 108.054 155.924 103.312 153.783 99.604Z" fill="#E0E0E0"/>
<path d="M86.4406 99.0088L58.2031 115.857V153.526C58.2031 159.885 63.3556 165.037 69.7141 165.037H129.636C135.995 165.037 141.147 159.885 141.147 153.526V115.857L112.779 99.0088H86.4406Z" fill="#07698C"/>
<path d="M99.6748 113.291V132.632" stroke="#0F4559" stroke-width="3.375" stroke-linecap="round" stroke-linejoin="round"/>
<path d="M86.4404 99.0088L99.6749 112.32L112.909 99.0088H86.4404Z" fill="#C1C1C1"/>
<path d="M56.4164 90.0656L35.9414 70.3196L45.8909 64.2041L64.1699 82.4786L56.4164 90.0656Z" fill="#07698C"/>
<path d="M71.9189 90.0656L92.3939 70.3196L82.4444 64.2041L64.1699 82.4786L71.9189 90.0656Z" fill="#07698C"/>
<path d="M58.2031 144.053L99.6751 165.032H69.7141C63.3556 165.032 58.2031 159.879 58.2031 153.521V144.053Z" fill="#E0E0E0"/>
<path d="M141.147 144.053L99.6748 165.032H129.636C135.994 165.032 141.147 159.879 141.147 153.521V144.053Z" fill="#E0E0E0"/>
<path d="M93.9553 54.0264H104.481C111.343 54.0264 116.905 59.9124 116.905 59.9124V81.3279L96.7588 95.6424L82.4443 85.7694V65.5374C82.4443 59.1789 87.5968 54.0264 93.9553 54.0264Z" fill="#97AABA"/>
<path d="M99.6748 105.131C90.1573 105.131 82.4443 97.418 82.4443 87.9005V72.173L109.719 63.8525L116.905 73.3835V87.9005C116.905 97.418 109.192 105.131 99.6748 105.131Z" fill="#E0E0E0"/>
<path d="M105.575 93.1025C104.139 94.664 102.078 95.6405 99.7876 95.6405C97.6141 95.6405 95.6476 94.7585 94.2256 93.3365" stroke="#0F4559" stroke-width="3.375" stroke-linecap="round" stroke-linejoin="round"/>
<path d="M91.9215 119.902L76.1895 105.129L86.4405 99.0088L99.675 112.32L91.9215 119.902Z" fill="#0F4559"/>
<path d="M107.428 119.902L123.16 105.129L112.909 99.0088L99.6748 112.32L107.428 119.902Z" fill="#0F4559"/>
</svg>
