<svg width="240" height="240" viewBox="0 0 240 240" fill="none" xmlns="http://www.w3.org/2000/svg">
<path d="M216 57H174V135H216V57Z" fill="#E0E0E0"/>
<path d="M216 57L174 15V36H75C61.4788 36.0159 48.516 41.3942 38.9551 50.9551C29.3942 60.516 24.0159 73.4788 24 87V183H66V87C66.0027 84.6139 66.9518 82.3263 68.639 80.639C70.3263 78.9518 72.6139 78.0027 75 78H174V99L216 57Z" fill="#9BAAB8"/>
<path d="M66 162V141L24 183L66 225V204H144V162H66Z" fill="#E0E0E0"/>
<path d="M194.391 157.261C194.378 154.991 194.174 152.727 193.784 150.491L208.207 134.92C206.467 130.664 212.439 121.403 212.439 121.403H200.394L179.874 126.164C176.388 123.263 172.433 120.976 168.18 119.401C168.18 119.401 169.647 98.6567 167.006 98.5301C164.633 98.4167 149.002 98.7557 146.451 99.0977L140.28 119.401C136.028 120.975 132.074 123.261 128.587 126.161L120.112 121.399H108.065C104.87 125.537 102.243 130.083 100.252 134.917L114.676 150.488C113.866 154.964 113.866 159.55 114.676 164.026L100.253 179.597C102.244 184.431 104.871 188.977 108.065 193.115H120.111L128.585 188.352C132.072 191.254 136.026 193.543 140.28 195.121L146.453 215.422C149.004 215.764 163.632 216.003 166.276 216.003C168.919 216.003 168.182 195.119 168.182 195.119C172.435 193.544 176.389 191.258 179.876 188.357L200.396 193.12H212.441C212.441 193.12 206.456 183.887 208.209 179.603L193.784 164.029C194.174 161.793 194.377 159.529 194.391 157.261ZM154.229 173.984C150.918 174.005 147.674 173.041 144.911 171.216C142.147 169.391 139.987 166.787 138.706 163.733C137.424 160.679 137.078 157.313 137.712 154.063C138.345 150.812 139.93 147.822 142.264 145.473C144.599 143.124 147.578 141.521 150.825 140.867C154.072 140.214 157.44 140.539 160.501 141.801C163.563 143.064 166.181 145.207 168.023 147.959C169.866 150.711 170.849 153.949 170.849 157.261C170.863 161.682 169.119 165.928 166.003 169.064C162.886 172.2 158.651 173.969 154.229 173.983V173.984Z" fill="#0F4559"/>
<path d="M206.437 157.26C206.423 154.99 206.22 152.726 205.829 150.491L220.252 134.919C218.261 130.086 215.633 125.54 212.439 121.402L191.919 126.164C188.433 123.263 184.479 120.976 180.226 119.4L174 98.9998C171.395 98.6327 168.768 98.4385 166.137 98.4184C163.493 98.4184 161.181 98.3998 158.512 98.6044L152.323 119.4C148.071 120.974 144.117 123.26 140.63 126.16L120.11 121.398C116.916 125.536 114.288 130.082 112.297 134.916L126.72 150.489C125.91 154.966 125.91 159.551 126.72 164.028L112.297 179.599C114.288 184.433 116.916 188.978 120.11 193.116L140.63 188.354C144.117 191.254 148.072 193.541 152.324 195.117L158.395 215.883C160.741 215.889 163.631 215.999 166.275 215.999C168.878 215.979 171.476 215.785 174.053 215.418L180.226 195.115C184.479 193.541 188.434 191.254 191.92 188.354L212.44 193.116C215.635 188.978 218.262 184.432 220.253 179.599L205.829 164.028C206.219 161.793 206.423 159.529 206.437 157.26ZM166.274 173.984C162.963 174.004 159.719 173.041 156.956 171.216C154.192 169.391 152.032 166.786 150.751 163.732C149.469 160.678 149.123 157.313 149.757 154.062C150.39 150.811 151.975 147.822 154.309 145.473C156.644 143.123 159.623 141.52 162.87 140.867C166.117 140.213 169.485 140.538 172.546 141.8C175.608 143.063 178.226 145.206 180.068 147.958C181.911 150.711 182.894 153.948 182.894 157.26C182.908 161.681 181.164 165.927 178.048 169.063C174.931 172.199 170.696 173.969 166.274 173.982V173.984Z" fill="#07698C"/>
</svg>
