<svg width="180" height="180" viewBox="0 0 180 180" fill="none" xmlns="http://www.w3.org/2000/svg">
<path d="M36 27H135V155.25C135 161.46 129.96 166.5 123.75 166.5H47.25C41.04 166.5 36 161.46 36 155.25V27Z" fill="#E0E0E0"/>
<path d="M47.25 13.5H123.75C129.96 13.5 135 18.54 135 24.75V27H36V24.75C36 18.54 41.04 13.5 47.25 13.5Z" fill="#97AABA"/>
<path d="M67.5 135H49.5V153H67.5V135Z" fill="white"/>
<path d="M135 148.5C152.397 148.5 166.5 134.397 166.5 117C166.5 99.603 152.397 85.5 135 85.5C117.603 85.5 103.5 99.603 103.5 117C103.5 134.397 117.603 148.5 135 148.5Z" fill="#07698C"/>
<path d="M135 85.5V148.5C117.585 148.5 103.5 134.415 103.5 117C103.5 108.27 107.01 100.44 112.725 94.725C118.44 89.01 126.27 85.5 135 85.5Z" fill="#1794C2"/>
<path d="M138.356 115.312H36.7778" stroke="#07698C" stroke-width="3.375" stroke-linejoin="round"/>
<path d="M117 63H99V81H117V63Z" fill="#1794C2"/>
<path d="M152.933 58.5H135V76.5H152.933V58.5Z" fill="#1794C2"/>
<path d="M152.933 27.1055H135V45.002H152.933V27.1055Z" fill="#1794C2"/>
<path d="M101.331 36H52.3081" stroke="#07698C" stroke-width="3.375" stroke-linecap="round" stroke-linejoin="round"/>
<path d="M52.3081 50.0889H83.6461" stroke="#07698C" stroke-width="3.375" stroke-linecap="round" stroke-linejoin="round"/>
<path d="M76.5 85.5H36V117H76.5V85.5Z" fill="#07698C"/>
<path d="M36 85.5H18V117H36V85.5Z" fill="#0F4559"/>
<path d="M36 85.5L56.25 65.25L76.5 85.5H36Z" fill="#07698C"/>
<path d="M36 85.5L56.25 65.25H38.25L18 85.5H36Z" fill="#0F4559"/>
<path d="M134.999 85.5V117L112.724 94.725C118.439 89.01 126.269 85.5 134.999 85.5Z" fill="#0F4559"/>
<path d="M112.725 94.7285L135 117.004H103.5C103.5 108.922 106.556 100.903 112.73 94.7285H112.725Z" fill="#07698C"/>
<path d="M134.999 125.972C139.955 125.972 143.972 121.955 143.972 116.999C143.972 112.044 139.955 108.026 134.999 108.026C130.044 108.026 126.026 112.044 126.026 116.999C126.026 121.955 130.044 125.972 134.999 125.972Z" fill="white"/>
<path d="M108 36V72" stroke="#1794C2" stroke-width="3.375" stroke-linecap="round" stroke-linejoin="round"/>
<path d="M144 67.5V36" stroke="#1794C2" stroke-width="3.375" stroke-linecap="round" stroke-linejoin="round"/>
<path d="M144 36L108 72" stroke="#1794C2" stroke-width="3.375" stroke-linecap="round" stroke-linejoin="round"/>
<path d="M108 45C112.971 45 117 40.9706 117 36C117 31.0294 112.971 27 108 27C103.029 27 99 31.0294 99 36C99 40.9706 103.029 45 108 45Z" fill="#07698C"/>
</svg>
